<svg xmlns:xlink="http://www.w3.org/1999/xlink" height="26" viewBox="0 0 74 26"
    width="74" xmlns="http://www.w3.org/2000/svg">
    <defs>
        <linearGradient gradientUnits="objectBoundingBox" id="linear-gradient" x1="0.059" x2="0.892" y1="0.092"
            y2="0.987">
            <stop offset="0" stop-color="#c3bdc9" />
            <stop offset="1" stop-color="#c3bdc9" stop-opacity="0" />
        </linearGradient>
        <linearGradient id="linear-gradient-2" x1="2.153" x2="0.104" y1="1.921" y2="0.45"
            xlink:href="#linear-gradient" />
        <linearGradient id="linear-gradient-3" x1="1.207" x2="0.025" y1="-0.112" y2="1.039"
            xlink:href="#linear-gradient" />
    </defs>
    <g data-name="Group 31" id="Group_31" transform="translate(-277 -29)">
        <text fill="#fff" font-family="OpenSans-Bold, Open Sans" font-size="16" font-weight="700"
            id="gov.pl" transform="translate(304 46)">
            <tspan x="0" y="0">gov.pl</tspan>
        </text>
        <g id="Herb_Polski" transform="translate(277.001 29)">
            <g id="g2379" transform="translate(-0.001 0)">
                <path d="M429.363,145.551l.29,20.72a4.063,4.063,0,0,0,1.918,3.1,4.69,4.69,0,0,0,2.661.6c.394-.006,2.646-.017,3.78.014.828.023,2.207.6,2.3,1.56h.194c.083-1.115,1.463-1.535,2.3-1.56,1.129-.032,3.386-.02,3.78-.014a4.689,4.689,0,0,0,2.661-.6,4.062,4.062,0,0,0,1.918-3.1l.29-20.72Z"
                    fill="#dc143c"
                    fill-rule="evenodd" id="path2161" transform="translate(-429.363 -145.551)" />
            </g>
            <path d="M1319.819,139.219a9.673,9.673,0,0,1,.7,1.792,5.753,5.753,0,0,1,1.08.071,3.134,3.134,0,0,0,1.08.071,5.441,5.441,0,0,1,.75-1.972c-.172.117-.537.165-.681.377-.215-.191-.385-.071-.492.131.036-.161-.012-.3-.223-.311.125-.235-.068-.351-.269-.246-.005-.2-.169-.206-.181-.315-.027.126-.17.064-.15.369-.163-.131-.322-.046-.261.185-.2,0-.253.162-.234.365a.272.272,0,0,0-.481-.108c-.159-.314-.279-.116-.642-.408Z"
                fill="#f6d155"
                fill-rule="evenodd" id="path3360" transform="translate(-1310.585 -137.844)" />
            <path d="M109.968,425.5c-.229.394-.328.422-1.334.267-.8-.079-1.512-.3-1.545.417a.8.8,0,0,1,.813.622l-.487.415c-.344.054-.886.514-1.245.086-.1.4.271.516.656.5.27-.028.356-.1.86-.2l.134.144c.761.063,1.156,1.152-.079,1.791a.271.271,0,0,0,.148.346c-.359.508-.948,1.141-1.16.723a.43.43,0,0,0,.081.583,1.291,1.291,0,0,0-.272.893c-.814-.127-1.35-.265-1.168-1.026.866.04,1.1-1.006.974-1.536-.5-2.118-3.235-3.816-5.224-3.872a2.578,2.578,0,0,0,.871,1.375,2.817,2.817,0,0,0-1.78-.375c.074.455.321.983,1.359,1.845a6.3,6.3,0,0,1-1.682-1.232.945.945,0,0,0,.47,1.173,2.67,2.67,0,0,0-1.509.148,3.492,3.492,0,0,0,1.707,1.37,3.553,3.553,0,0,1-1.821-.831,1.113,1.113,0,0,0,.7,1.153,2.471,2.471,0,0,0-1.19.477,3.121,3.121,0,0,0,1.932,1.007,4.678,4.678,0,0,1-1.766-.148c.007.177-.142.889,1.757.772-.677.32-1.7.986-1.863,1.574a4.227,4.227,0,0,0,2.449-.14c-1.8,1.1-2.087,1.213-2.421,1.139.437.924,1.49.3,2.4-.218a4.679,4.679,0,0,0-1.277,3.32c.9-.108,2.2-1.4,2.9-2.5-.805,1.656-1.284,2.988-2.162,3.379,1,.4,1.858-.859,2.461-2.19a6.048,6.048,0,0,0-.031,3.066,6.55,6.55,0,0,0,2.048-3.533,15.443,15.443,0,0,1-.554,2.306c.581.111.878-.933,1.075-1.544a.441.441,0,0,0,.1.111,3.47,3.47,0,0,0,1.02-2.254,1.126,1.126,0,0,0,1.136-.177,2.416,2.416,0,0,1,.2.563c-.728-.592-1.509,0-1.541.987a1.9,1.9,0,0,1-.848,1.255.26.26,0,0,0,.211.061,1.758,1.758,0,0,1-.345.457.441.441,0,0,0,.144.036,1.341,1.341,0,0,1-.53.5c.049.047.077.063.225.1a1.453,1.453,0,0,1-.567.431,1.508,1.508,0,0,0,.951.245h0a1.469,1.469,0,0,1-.661.611.257.257,0,0,0,.248.067,1.785,1.785,0,0,1-.677.484.225.225,0,0,0,.2.059,1.215,1.215,0,0,1-.669.46c.065.125.2.106.315.11-.09.194-.372.259-.657.319.215.061.361.176.233.146a.494.494,0,0,1-.358.186c-.191.029-.875-.218-1.15-.123a.525.525,0,0,0-.466-.262.486.486,0,0,0-.516.389c-.039-.027-.205-.049-.18.148.06.116.063.209.429.35a.485.485,0,0,0,.22.037.666.666,0,0,0,.386-.166l0,0a3.035,3.035,0,0,1,.494.111c-.288.023-.388.182-.552.3a1.633,1.633,0,0,1-.189-.031l0,0a.379.379,0,0,0-.113-.012.544.544,0,0,0-.436.506.263.263,0,0,0,.035.151l0,.045a.109.109,0,0,0,.022.176.7.7,0,0,0,.492.02.463.463,0,0,0,.419-.425s0,0,0,0l0,.005a1.938,1.938,0,0,0,.684-.24.1.1,0,0,1,.009.056.648.648,0,0,0-.33.416c-.024,0-.048,0-.07,0a.344.344,0,0,0-.379.387.421.421,0,0,0,.155.345c-.019.106-.006.194.1.229.368.058.457-.133.531-.128a.218.218,0,0,1,.019-.113.287.287,0,0,0,.2-.308.356.356,0,0,0-.056-.264l.01,0h0v0a4.682,4.682,0,0,0,.7-.708,1.393,1.393,0,0,0,.564-.025l-.006.052c-.135.129-.043.436.135.429a.17.17,0,0,0,0,.084c.116.071.33.021.493.058.084-.01.124-.066.1-.181l0,0a.4.4,0,0,0,.2-.395.456.456,0,0,0-.426-.455h0c-.252-.027-.494.155-.441-.238a25.329,25.329,0,0,1,1.889-2.2.341.341,0,0,1-.046-.1.955.955,0,0,0,.9.531,1.305,1.305,0,0,1-.183-.635.438.438,0,0,0,.291.155,2.422,2.422,0,0,1,.678-2.24,5.259,5.259,0,0,1-.664,2.547.636.636,0,0,0,.654-.345c.056.758-.662,1.733-1.224,1.266-.353.775.484,1.151,1.011.7a1.112,1.112,0,0,1-.855.852c-.4.108-.816-.062-.55-.7a.768.768,0,0,0-.88.82.8.8,0,0,0,.4.7c-1.143.867.009,1.833.951,1.645a2.169,2.169,0,0,0,1.443-1.16,2.542,2.542,0,0,0,.441,2.43,2.749,2.749,0,0,0,.472-2.374c.671,1.034,1.332,1.109,1.724,1.083.668.011,1.615-1.04.412-1.711.616-.293.656-1.511-.211-1.573.179.482-.2.774-.614.736a1.038,1.038,0,0,1-.947-.818c.819.394,1.2-.381.92-.8-.7.578-1.029-.349-1.123-.9a.726.726,0,0,0,.633.139,4.646,4.646,0,0,1-.752-2.632,4.077,4.077,0,0,1,.756,2.105c.09-.044.171-.056.332-.379.015.552-.048.626-.235.857.306.128.707-.119.9-.447l0,0a22.321,22.321,0,0,0,1.858,2.261c.135.141.182.282-.068.332-.8-.3-.885.542-.553.656a.389.389,0,0,0-.011.237c.158.049.48-.082.566-.087.04-.036.041-.112.039-.19a.2.2,0,0,0,.174-.113.526.526,0,0,0,.506-.113l.593.6c.031.018-.031.081.052.089-.066.4.084.44.213.54-.026.378.54.16.595.182a.1.1,0,0,0,.055-.118c.066-.069.035-.1.013-.153a.442.442,0,0,0-.34-.724,4.313,4.313,0,0,0-.595-.522,8.685,8.685,0,0,1,1.161.44c.066.441.452.259.737.274.089-.124.041-.163,0-.206.375-.484-.416-.881-.753-.6a1.46,1.46,0,0,0-.553-.29c.075-.076.234-.135.593-.158a.389.389,0,0,0,.482.026.174.174,0,0,0,.255.084,1.063,1.063,0,0,0,.153-.529.172.172,0,0,0-.171-.111.409.409,0,0,0-.74.024,3.841,3.841,0,0,0-1.193.256c-.141.042-.275-.11-.395-.2.108-.043.2-.093.2-.184a.7.7,0,0,1-.543-.211l.053-.142a.983.983,0,0,1-.524-.479.312.312,0,0,0,.119-.142,1.055,1.055,0,0,1-.574-.356.391.391,0,0,0,.155-.15,2.5,2.5,0,0,1-.836-.782l0-.008a1.624,1.624,0,0,0,1.158-.166,1.17,1.17,0,0,1-.759-.509.8.8,0,0,0,.181-.038,1.129,1.129,0,0,1-.5-.506.247.247,0,0,0,.2-.072.738.738,0,0,1-.378-.368.375.375,0,0,0,.247-.035c-.831-.375-.716-2.318-1.608-2.324a1.292,1.292,0,0,0-.674.223,2.185,2.185,0,0,1,.268-.477.977.977,0,0,0,1-.015,2.92,2.92,0,0,0,.859,2.038,1.141,1.141,0,0,0,.273-.195c.1.725.368,1.679.976,1.6a6.123,6.123,0,0,1-.307-2.1c.255,2.048.884,3.243,1.4,3.6a5.882,5.882,0,0,0,.3-2.709c.511.925,1.078,1.781,1.553,1.777a2.114,2.114,0,0,0,.6-.223c-.745-.3-1.251-1.673-1.709-2.527a4.454,4.454,0,0,0,2.359,2.041,4.908,4.908,0,0,0-.96-3.191c1.911,1.012,2.317.358,2.429.01-.862.3-2.025-.808-2.8-1.16l-.01-.031a3.321,3.321,0,0,0,2.954.261,3.376,3.376,0,0,0-1.8-1.488c1.237.137,1.643-.284,1.668-.744a2.762,2.762,0,0,1-1.408.09c1.184-.239,1.4-.741,1.386-.791a3,3,0,0,0-1.393-.55c1.428-.513.974-1,.921-1.148a3.115,3.115,0,0,1-1.354.7,2.888,2.888,0,0,0,1.207-1.359,2.293,2.293,0,0,0-1.3-.079c.277-.3.641-.825.305-1.258a4.092,4.092,0,0,1-.937.938,2.886,2.886,0,0,0,.713-1.583,2.5,2.5,0,0,0-1.336.371,2.207,2.207,0,0,0,.539-1.232,5.864,5.864,0,0,0-5.1,3.546c-.305.716-.067,1.935.893,1.8.151.615-.256.991-1.14.964-.019-.206.046-.614-.208-.829a.3.3,0,0,0,.3-.218c-.577-.133-.484-.325-.376-1.35a.213.213,0,0,0,.228-.047c-.238-.22-.16-.627-.039-1.908.024-.558-.091-.838-.213-.934.074-.038.122-.1.084-.237.267-.047.154-.373.044-.478-.054.145-.282.2-.5.038a.367.367,0,0,0,.064-.623Zm1.079,13.77.027.031-.028-.029v0Zm-5.457.04a3.457,3.457,0,0,0,.026.537.639.639,0,0,0,.423-.07l-.029.012a.645.645,0,0,1-.4.06l-.031-.393a.387.387,0,0,1,.006-.146h0Zm-.066.018-.045.011Zm5.636.048a.727.727,0,0,0,.53.127c.005-.011.01-.023.014-.034,0,.013-.007.026-.011.039A.669.669,0,0,1,111.159,439.375Zm-6.793,3.289s0,0,0,0h0Zm5.056.219a1.819,1.819,0,0,0,1.729.468.506.506,0,0,1-.644.581,1.588,1.588,0,0,1-1.086-1.049Zm-1.647.12a2.083,2.083,0,0,1-1.112,1.049c-.4.1-.767-.093-.623-.609A1.678,1.678,0,0,0,107.775,443Z"
                fill="#fff"
                fill-rule="evenodd" id="path3358" transform="translate(-97.557 -422.522)" />
            <path d="M710.417,937.275a.789.789,0,0,1-.238-.679c-.319-.241-.235-.336-.29-.434.111.2.222.325.332.343a3.2,3.2,0,0,0,.633.385,1.478,1.478,0,0,1-.92-1.819.727.727,0,0,1-.458-.112,1,1,0,0,1,.612-.826,1.019,1.019,0,0,1-.147.049.423.423,0,0,1-.018-.486.673.673,0,0,1,.518.018,1,1,0,0,1,.651-.591.9.9,0,0,1,.129.822.751.751,0,0,1,.4.294.419.419,0,0,1-.108.227c.564.006.619-.786-.01-.87.1-.746-.854-1.191-1.271-.271-.766-.205-.971.391-.682.857a.888.888,0,0,0-.13,1.427,1.182,1.182,0,0,0,.633,1.113C710.21,937.174,710.307,937.175,710.417,937.275Z"
                fill="#dfdde2"
                fill-rule="evenodd" id="path3362" transform="translate(-704.154 -926.28)" />
            <path d="M2251.67,946.429l.1-.193c.689-.108,1.106.354.836.9a.705.705,0,0,1-.086,1.218c.4-.3.181-.386.113-.381a.393.393,0,0,0,.083-.052,1.054,1.054,0,0,0-.525-.8.616.616,0,0,0,.151-.575.8.8,0,0,0-.588.05Z"
                fill="#dfdde2"
                fill-rule="evenodd" id="path3364" transform="translate(-2235.916 -939.599)" />
            <path d="M2030.765,886.842a.768.768,0,0,1,.256-.444q-.092.067-.2.165a.805.805,0,0,1-.449-.47.671.671,0,0,1,.57-.157.908.908,0,0,1,.131-.81.9.9,0,0,1,.635.353l.1-.178a.6.6,0,0,0-.692-.425c-.272.029-.581.265-.457.819C2029.832,886.026,2030.181,886.812,2030.765,886.842Z"
                fill="#dfdde2"
                fill-rule="evenodd" id="path3366" transform="translate(-2015.964 -878.672)" />
            <path d="M1838.463,1172.764a3.435,3.435,0,0,1-.154.729c1.115-.167,2.766-.454,2.542-1.68a.989.989,0,0,1-.609.178,1.28,1.28,0,0,1,.008-.6,1.025,1.025,0,0,1-.627.4c1.009.45-.427,1.246-1.027.977Z"
                fill="#f1eef0"
                fill-rule="evenodd" id="path3368" transform="translate(-1825.447 -1163.19)" />
            <path d="M1284.342,1433.82a7.388,7.388,0,0,0,.246,1.16A2.886,2.886,0,0,1,1284.342,1433.82Z"
                fill="#e8e6eb"
                fill-rule="evenodd" id="path3370" transform="translate(-1275.351 -1423.787)" />
            <path d="M1745.2,1379.829c-.27,1.068.919.964.085-.131.81.5.279,1.238.238,1.4C1745.4,1380.53,1744.9,1380.385,1745.2,1379.829Z"
                fill="#c3bdc9"
                fill-rule="evenodd" id="path3372" transform="translate(-1732.894 -1370.044)" />
            <path d="M888.839,980.439l-.4,1.183a.744.744,0,0,1-.322-.232A1.022,1.022,0,0,1,888.839,980.439Z"
                fill="#fff"
                fill-rule="evenodd" id="path3374" transform="translate(-881.901 -973.578)" />
            <path d="M934.444,1145.467l-.725-1.12a1.765,1.765,0,0,0,.4-.037,1.29,1.29,0,0,1,.322,1.158Z"
                fill="#c3bdc9"
                fill-rule="evenodd" id="path3376" transform="translate(-927.186 -1136.302)" />
            <path d="M991.5,1096.49a.587.587,0,0,1,.4.291l-.512.047A2.116,2.116,0,0,0,991.5,1096.49Z"
                fill="#fff"
                fill-rule="evenodd" id="path3378" transform="translate(-984.444 -1088.817)" />
            <path d="M816.752,1060.622c-.1-.138-.095-.42,0-.479l.427.394A3.124,3.124,0,0,0,816.752,1060.622Z"
                fill="#fff"
                fill-rule="evenodd" id="path3380" transform="translate(-810.967 -1052.725)" />
            <path d="M762.4,1116.924l1.2-.617c.025-.015-.17-.2-.318-.237A.955.955,0,0,0,762.4,1116.924Z"
                fill="#fff"
                fill-rule="evenodd" id="path3382" transform="translate(-757.062 -1108.257)" />
            <path d="M891.364,1238.74c-.617,1.766,2.041,2.04,2.749,2.093l-.086-.443c-1.285-.057-2.484-.341-2.307-1.307A.812.812,0,0,1,891.364,1238.74Z"
                fill="url(#linear-gradient)"
                fill-rule="evenodd" id="path3384"
                transform="translate(-885.036 -1230.072)" />
            <path d="M819.966,1238.08a2.024,2.024,0,0,1-.543.131c-.512,2.143,2.808,2.312,3.444,2.391a1.564,1.564,0,0,1-.154-.432C821.028,1240.061,819.47,1239.43,819.966,1238.08Z"
                fill="url(#linear-gradient-2)"
                fill-rule="evenodd" id="path3386"
                transform="translate(-813.636 -1229.417)" />
            <path d="M2159.55,923.793a10.457,10.457,0,0,1,.526,1.266,1.618,1.618,0,0,1,.32-.371A.988.988,0,0,0,2159.55,923.793Z"
                fill="#c3bdc9"
                fill-rule="evenodd" id="path3388" transform="translate(-2144.44 -917.329)" />
            <path d="M2136.378,923.4a10.09,10.09,0,0,1,.527,1.267l-.453-.065A1.015,1.015,0,0,1,2136.378,923.4Z"
                fill="#fff"
                fill-rule="evenodd" id="path3390" transform="translate(-2121.268 -916.935)" />
            <path d="M2060.229,1038.428a.655.655,0,0,1,.569-.142,2.277,2.277,0,0,0,.2.39Z"
                fill="#c3bdc9"
                fill-rule="evenodd" id="path3392" transform="translate(-2045.814 -1031.009)" />
            <path d="M2280.664,993.594l-.462.412.3.157A.591.591,0,0,0,2280.664,993.594Z"
                fill="#c3bdc9"
                fill-rule="evenodd" id="path3395" transform="translate(-2264.248 -986.642)" />
            <path d="M2235.434,1051.49c-.074.015-.332.371-.315.368l1.153.588A1.186,1.186,0,0,0,2235.434,1051.49Z"
                fill="#c3bdc9"
                fill-rule="evenodd" id="path3397" transform="translate(-2219.48 -1044.132)" />
            <path d="M2116.754,1103.6l-.831,1.073a1.022,1.022,0,0,0,.931-.553Z" fill="#c3bdc9"
                fill-rule="evenodd" id="path3399" transform="translate(-2101.118 -1095.878)" />
            <path d="M2264.35,988.754a.77.77,0,0,0-.577.05,2.1,2.1,0,0,1,.118.36Z" fill="#fff"
                fill-rule="evenodd" id="path3401" transform="translate(-2247.933 -981.801)" />
            <path d="M2234.65,1103.78l1.159.59c-.212.175-.882.012-1.062-.067Z" fill="#fff"
                fill-rule="evenodd" id="path3403" transform="translate(-2219.014 -1096.056)" />
            <path d="M2112.6,1094.964l-.454-.065c-.5.211-.415,1.071-.377,1.134Z" fill="#fff"
                fill-rule="evenodd" id="path3405" transform="translate(-2096.958 -1087.238)" />
            <path d="M2061.043,1060.343l-.764-.246a.794.794,0,0,0,.433.462A.973.973,0,0,1,2061.043,1060.343Z"
                fill="#fff"
                fill-rule="evenodd" id="path3407" transform="translate(-2045.864 -1052.679)" />
            <path d="M1825.468,1178.37a1.056,1.056,0,0,1-.342.37c.27,1.24-1.512,1.55-2.542,1.7a1.471,1.471,0,0,1-.114.446C1822.656,1180.868,1826.313,1180.8,1825.468,1178.37Z"
                fill="#fff"
                fill-rule="evenodd" id="path3409" transform="translate(-1809.719 -1170.125)" />
            <path d="M1806.281,1180.7c.493,1.8-1.119,2.319-3.016,2.491-.046.112-.091.234-.137.359,2.576-.18,3.924-1.013,3.572-2.748A2.661,2.661,0,0,1,1806.281,1180.7Z"
                fill="url(#linear-gradient-3)"
                fill-rule="evenodd" id="path3411"
                transform="translate(-1790.512 -1172.438)" />
            <path d="M535.244,2985.959a.9.9,0,0,0,.6-.009c.074.071-.023.349.2.552C535.916,2986.557,535.229,2986.345,535.244,2985.959Z"
                fill="#f6d155"
                fill-rule="evenodd" id="path3413" transform="translate(-531.499 -2965.057)" />
            <path d="M474.2,2775.36c.086.274.329.3.428.361,0,.1-.268.1-.278.474C474.165,2776.178,473.906,2775.744,474.2,2775.36Z"
                fill="#f6d155"
                fill-rule="evenodd" id="path3415" transform="translate(-470.751 -2755.94)" />
            <path d="M690.425,3080.452a.731.731,0,0,0,.531-.133.747.747,0,0,0,.334.327C691.222,3080.892,690.41,3080.838,690.425,3080.452Z"
                fill="#f6d155"
                fill-rule="evenodd" id="path3417" transform="translate(-685.594 -3058.765)" />
            <path d="M962.8,2960.181c-.02-.042-.4,0-.474-.057-.048.06-.062.256-.208.331C962.209,2960.623,962.852,2960.568,962.8,2960.181Z"
                fill="#f6d155"
                fill-rule="evenodd" id="path3419" transform="translate(-955.385 -2939.411)" />
            <path d="M514.836,2417.614a1.026,1.026,0,0,0,.16-.029c-.226.272-.6.746-.981,1.146s-.725.8-.594,1.154c-.263-.261-.029-.517.327-.938C514.133,2418.491,514.569,2417.965,514.836,2417.614Zm-.476,2.9c0,.186-.155.358-.528.341.421-.462-.43-.49-.227-.679C514.168,2419.824,514.4,2420.371,514.359,2420.515Zm-.4.406c.122.026.2-.126.225-.049C514.236,2421.025,513.96,2421.053,513.958,2420.921Zm-2.848-1.6c-.086,0-.061.344-.57.33a.089.089,0,0,0-.084.048c-.062.116.146.353.335.339a.536.536,0,0,0,.389-.225c.039-.022.309-.172.287-.107-.317.155-.238.253.265.289a1.969,1.969,0,0,0,.7-.378,5.894,5.894,0,0,1-1.174-.161.232.232,0,0,0-.143-.135Zm-.569,1.773a.117.117,0,0,1-.047.065.593.593,0,0,0,.358.022A.616.616,0,0,1,510.541,2421.1Zm2.37-1.439c-.431.21-.728.971-1.8.871-.027.094-.086.112-.141.141-.223,0-.481.05-.478.19,0,.169.263.274.437.254a.419.419,0,0,0,.36-.359h0a.034.034,0,0,1,.033-.024A2.3,2.3,0,0,0,512.911,2419.656Zm.189.021c-.047.288-.98,1.146-1.024,1.427a.377.377,0,0,0-.27-.058c.087.43-.272.562-.368.488,0,.194.282.275.465.24a.425.425,0,0,0,.271-.572c.028-.355.5-.459.691-.916.172,0,.2-.269.413-.318C513.233,2419.829,513.058,2420.009,513.1,2419.677Zm-2.757,0a.51.51,0,0,0,.23.347.831.831,0,0,1-.313-.163C510.362,2419.891,510.284,2419.65,510.343,2419.677Zm2.236-.457a2.89,2.89,0,0,0,.81.043C512.876,2419.444,512.645,2419.382,512.579,2419.22Zm.647-.323c0,.027-.042.081-.081.115a.863.863,0,0,0,.665-.252A1.373,1.373,0,0,1,513.226,2418.9Zm.35-.566a1.134,1.134,0,0,1-.131.154,1.107,1.107,0,0,0,.788-.268A1.763,1.763,0,0,1,513.576,2418.331Zm.478-.544c-.037.04-.157.157-.2.195a1.319,1.319,0,0,0,.841-.336A1.647,1.647,0,0,1,514.054,2417.787Zm.657-.6a.776.776,0,0,1-.177.484,1.949,1.949,0,0,0,.212-.071C514.739,2417.466,514.727,2417.312,514.711,2417.183Z"
                fill="#dfdde2"
                fill-rule="evenodd" id="path3422" transform="translate(-506.69 -2400.269)" />
            <path d="M2086.3,2922.658c.2.05.452-.083.57-.086a.443.443,0,0,0,.3.3A.567.567,0,0,1,2086.3,2922.658Z"
                fill="#f6d155"
                fill-rule="evenodd" id="path3424" transform="translate(-2071.702 -2902.122)" />
            <path d="M2368.871,3061.382a1.475,1.475,0,0,1-.3.238c.255.232.773-.029.753-.253C2369.277,3061.278,2369.128,3061.47,2368.871,3061.382Z"
                fill="#f6d155"
                fill-rule="evenodd" id="path3426" transform="translate(-2351.998 -3039.922)" />
            <path d="M2543.651,2946.073a1.122,1.122,0,0,1-.069.485c.145.1.52-.136.56-.491C2544.1,2945.982,2543.943,2946.129,2543.651,2946.073Z"
                fill="#f6d155"
                fill-rule="evenodd" id="path3428" transform="translate(-2525.785 -2925.426)" />
            <path d="M2628.031,2712.33c-.108.027-.043.394-.167.51a.859.859,0,0,1,.244.313A.519.519,0,0,0,2628.031,2712.33Z"
                fill="#f6d155"
                fill-rule="evenodd" id="path3430" transform="translate(-2609.477 -2693.351)" />
            <path d="M1926.422,2397.573c.114-.035.238-.093.283-.077C1926.774,2397.253,1926.612,2397.394,1926.422,2397.573Zm-.161-.2c.224,0,.536.036.613-.261a.435.435,0,0,0,.628-.448s-.112.509-.828.187c-.143-.021-.341.07-.328.167C1926.357,2397.147,1926.6,2397.253,1926.261,2397.378Zm1.894-.249c.182.184.3.354.257.493.112-.163.123-.065.148,0a.371.371,0,0,1-.1.62c.158.043.171.183,0,.234.007.148.4-.037.44.024.031-.014.041-.058.049-.1a.138.138,0,0,0,0-.161.436.436,0,0,0-.332-.706A4.057,4.057,0,0,0,1928.155,2397.13Zm.013-.459c.273.173.644.307,1,.536.351-.35.61.228.107.266.127.234.663.219.648.032.334-.632-.571-.787-.751-.56a2.741,2.741,0,0,0-.918-.4c.779.335.913.44.777.458A5.921,5.921,0,0,1,1928.168,2396.67Zm.24-.486c.214-.094.678-.081.8-.192a.385.385,0,0,1,.706-.032c.086,0,.151.018.161.087-.08.177-.029.609-.253.5.041-.031.021-.063,0-.095-.1.1-.1-.013-.1-.058-.144.168-.216.141-.321.116.026-.011.037-.039.034-.084.419-.162.055-.654-.284-.195C1929.04,2396.269,1928.583,2396.166,1928.407,2396.184Zm-3.357-2.362-.016.05a24.3,24.3,0,0,1,2.112,2.507,1.284,1.284,0,0,0-.3-.527c.676.379,1.009.043.969-.031a.218.218,0,0,1-.12,0c-.625.319-1.088-.21-1.365-.56a1.414,1.414,0,0,0,.943.35.412.412,0,0,0,.05-.132.189.189,0,0,1-.087-.034c-.425.161-.936-.162-1.335-.7a1.321,1.321,0,0,0,.911.25c.04-.046.095-.086.1-.145a.218.218,0,0,1-.095-.021,1.1,1.1,0,0,1-1.235-.487.908.908,0,0,0,.769.156c.061-.047.128-.094.142-.147a1.112,1.112,0,0,1-1.1-.206.726.726,0,0,0,.3-.082A.754.754,0,0,1,1925.05,2393.822Z"
                fill="#dfdde2"
                fill-rule="evenodd" id="path3432" transform="translate(-1911.565 -2377.072)" />
            <path d="M1264.5,672.022c.743.4,1.6-.51,2.2-.017.065,0,.074-.045.063-.086C1266.065,671.292,1265.321,672.214,1264.5,672.022Z"
                fill="#c3bdc9"
                fill-rule="evenodd" id="path3434" transform="translate(-1255.653 -666.997)" />
            <path d="M1154.915,2348.66l-.059.062a2.047,2.047,0,0,1-.441.836,1.26,1.26,0,0,0,.618-.166A1.02,1.02,0,0,1,1154.915,2348.66Z"
                fill="#c3bdc9"
                fill-rule="evenodd" id="path3436" transform="translate(-1146.339 -2332.226)" />
            <path d="M1236.567,2255.179c.1.2.3-.131.4-.221-.124.443-.372.892.169,1.309-.277.028-.354.148-.1.421C1236.532,2256.441,1236.25,2256.033,1236.567,2255.179Z"
                fill="#dfdde2"
                fill-rule="evenodd" id="path3438" transform="translate(-1227.782 -2239.179)" />
            <path d="M1307.57,1861.072c-.172.876.112,1.218.4,1.3a2.47,2.47,0,0,1,.793-2.141,13.2,13.2,0,0,0-.255-1.914,5.723,5.723,0,0,1,.074,1.666C1308.431,1860.57,1308.011,1861.139,1307.57,1861.072Z"
                fill="#cecad5"
                fill-rule="evenodd" id="path3440" transform="translate(-1298.369 -1845.315)" />
            <path d="M1066.26,2315.634a1.493,1.493,0,0,0,1.23-.461,1.042,1.042,0,0,1-1.2.584C1066.512,2315.718,1066.517,2315.68,1066.26,2315.634Z"
                fill="#c3bdc9"
                fill-rule="evenodd" id="path3442" transform="translate(-1058.8 -2298.973)" />
            <path d="M1040.1,2167.468a.674.674,0,0,1-.123.146,1.614,1.614,0,0,0,1.516-.6,1.267,1.267,0,0,0,.994-.544,1.293,1.293,0,0,1-.935.38A1.382,1.382,0,0,1,1040.1,2167.468Z"
                fill="#c3bdc9"
                fill-rule="evenodd" id="path3444" transform="translate(-1032.701 -2151.311)" />
            <path d="M1085.854,2082.319a.488.488,0,0,1-.108.16c.266.055.63-.048,1.251-.566a1.377,1.377,0,0,0,1.046-.592,1.561,1.561,0,0,1-.994.436A1.472,1.472,0,0,1,1085.854,2082.319Z"
                fill="#c3bdc9"
                fill-rule="evenodd" id="path3446" transform="translate(-1078.15 -2066.757)" />
            <path d="M1114.6,1951.29l-.112.175c.214-.012.5,0,1.095-.555a2,2,0,0,0,1.236-1.047,1.671,1.671,0,0,1-1.184.823c-.155.355-.565.5-1.035.6Z"
                fill="#c3bdc9"
                fill-rule="evenodd" id="path3448" transform="translate(-1106.686 -1936.22)" />
            <path d="M1816.713,2258.01a2.029,2.029,0,0,1-.253.827,1.678,1.678,0,0,1,.008.313A1.356,1.356,0,0,0,1816.713,2258.01Z"
                fill="#c3bdc9"
                fill-rule="evenodd" id="path3450" transform="translate(-1803.751 -2242.21)" />
            <path d="M1795.882,2279.83a1.093,1.093,0,0,1-.715,1.538c.228.095.913-.218,1.009-1.147l.562.633a.688.688,0,0,0-.056-.506A1.223,1.223,0,0,1,1795.882,2279.83Z"
                fill="#c3bdc9"
                fill-rule="evenodd" id="path3452" transform="translate(-1782.607 -2263.877)" />
            <path d="M1949.51,2307.5a1.693,1.693,0,0,0,1.359.1,1.088,1.088,0,0,0,.238.071,1.573,1.573,0,0,1-1.151.171C1950.6,2307.755,1949.625,2307.681,1949.51,2307.5Z"
                fill="#c5bdcb"
                fill-rule="evenodd" id="path3454" transform="translate(-1935.869 -2291.354)" />
            <path d="M1798.9,2154.23a1.244,1.244,0,0,0,.745.246,1.3,1.3,0,0,0,1.158.488.343.343,0,0,0,.1.145,2.267,2.267,0,0,1-1.214-.447A2.874,2.874,0,0,1,1798.9,2154.23Z"
                fill="#c3bdca"
                fill-rule="evenodd" id="path3456" transform="translate(-1786.314 -2139.156)" />
            <path d="M1782.4,2069.61a1.368,1.368,0,0,0,.719.309,1.539,1.539,0,0,0,.987.48l.086.149a2.5,2.5,0,0,1-.979-.477A1.54,1.54,0,0,1,1782.4,2069.61Z"
                fill="#c3bdc9"
                fill-rule="evenodd" id="path3458" transform="translate(-1769.929 -2055.128)" />
            <path d="M1789.32,2001.48a1.14,1.14,0,0,0,.775.35,1.354,1.354,0,0,0,.7.469.357.357,0,0,0,.067.123c-.277,0-.657-.389-.7-.451C1789.79,2001.918,1789.369,2001.731,1789.32,2001.48Z"
                fill="#c3bdc9"
                fill-rule="evenodd" id="path3460" transform="translate(-1776.8 -1987.475)" />
            <path d="M1473.87,1823.844a.372.372,0,0,0,.157-.12.4.4,0,0,0,.256.136c-.178-.006-.2.078-.115.225a11.842,11.842,0,0,1,.115,1.469,2.491,2.491,0,0,0,.167,1.024C1474.062,1826.25,1474.277,1824.271,1473.87,1823.844Z"
                fill="#dfdde2"
                fill-rule="evenodd" id="path3462" transform="translate(-1463.558 -1810.963)" />
            <path d="M1566.47,1819.442a1.439,1.439,0,0,0,.69-.188l.094.11a11.257,11.257,0,0,0-.408,2.21,7.278,7.278,0,0,0,.016-1.165,1.914,1.914,0,0,1-.042-.543C1566.937,1819.439,1566.616,1819.543,1566.47,1819.442Z"
                fill="#cecad5"
                fill-rule="evenodd" id="path3464" transform="translate(-1555.51 -1806.524)" />
            <path d="M1579.943,1841.65l.026.026c-.366.8,0,2.63-.789,3.553l-.016-.355C1579.764,1844.479,1579.614,1842.46,1579.943,1841.65Z"
                fill="#c3bdc9"
                fill-rule="evenodd" id="path3466" transform="translate(-1568.116 -1828.763)" />
            <path d="M1405.094,2123.2c0,1.308.211,1.556-.679,2.644.415-.346.879-1.4.82-.8a1.844,1.844,0,0,0,.23-.554A2.615,2.615,0,0,1,1405.094,2123.2Z"
                fill="#c3bdc9"
                fill-rule="evenodd" id="path3468" transform="translate(-1394.588 -2108.343)" />
            <path d="M1580.829,2329.32l-.167.2.047,1.729C1580.73,2330.53,1580.766,2329.87,1580.829,2329.32Z"
                fill="#c3bdc9"
                fill-rule="evenodd" id="path3470" transform="translate(-1569.603 -2313.021)" />
            <path d="M1640.556,2150.09a4.938,4.938,0,0,1-.146.768c.121,1.384.5,1.517.81,1.641A4.708,4.708,0,0,1,1640.556,2150.09Z"
                fill="#dfdde2"
                fill-rule="evenodd" id="path3472" transform="translate(-1628.932 -2135.045)" />
            <path d="M1414.108,2409.229c-.162.366-.108,1.068-.564,1.526a1.183,1.183,0,0,0,.533-1.03l.036.387c-.125.792-.485,1.008-.737,1.056.04-.011.434.072.8-.732a.8.8,0,0,1-.46.727.807.807,0,0,0,.583-.371A4.4,4.4,0,0,1,1414.108,2409.229Z"
                fill="#e0dee2"
                fill-rule="evenodd" id="path3474" transform="translate(-1403.487 -2392.371)" />
            <path d="M1542.95,2403.373a1.613,1.613,0,0,0,.308.734l.016.334a5.731,5.731,0,0,0,.483-1.552c.014-.112.02-.241.1-.157a.02.02,0,0,0,.031-.005c-.115-.078-.235-.465-.327-.593a2.915,2.915,0,0,1-.306,1.894A2.16,2.16,0,0,1,1542.95,2403.373Z"
                fill="#c3bdc9"
                fill-rule="evenodd" id="path3476" transform="translate(-1532.154 -2385.326)" />
            <path d="M1655.46,2507.739c-.46.236-.856-.333-1.046-.687l.085-.483a.03.03,0,0,1,.051-.007C1654.626,2507.094,1654.963,2507.715,1655.46,2507.739Z"
                fill="#dfdde2"
                fill-rule="evenodd" id="path3478" transform="translate(-1642.838 -2489.012)" />
            <path d="M1635.6,2604.52l-.05.146a1.038,1.038,0,0,0,.658.63C1635.679,2605.033,1635.643,2604.776,1635.6,2604.52Z"
                fill="#dfdde1"
                fill-rule="evenodd" id="path3480" transform="translate(-1624.111 -2586.295)" />
            <path d="M1569.46,2700.87l.141.243.107-.238c-.02.641-.062,1.416-.081,2.129C1569.568,2702.289,1569.488,2701.542,1569.46,2700.87Z"
                fill="#dfdde2"
                fill-rule="evenodd" id="path3482" transform="translate(-1558.479 -2681.971)" />
            <path d="M1536.874,2643.74a.641.641,0,0,1-.039.094,3.3,3.3,0,0,1-.209,2.835,4.237,4.237,0,0,1-.4-1.649,3.778,3.778,0,0,0,.376,1.727l.005.29c.466-.58.749-1.386.387-3.133A.81.81,0,0,1,1536.874,2643.74Z"
                fill="#c3bdc9"
                fill-rule="evenodd" id="path3484" transform="translate(-1525.48 -2625.241)" />
            <path d="M1568.34,3085.885a.553.553,0,0,0,.154.186,1.109,1.109,0,0,0,.17-.23c-.087.467-.126.922-.188,1.382C1568.433,3086.768,1568.4,3086.271,1568.34,3085.885Z"
                fill="#dfdde2"
                fill-rule="evenodd" id="path3486" transform="translate(-1557.367 -3064.248)" />
            <path d="M1525.812,2993.646a.906.906,0,0,1-.144-.666.117.117,0,0,0-.081-.1,1.169,1.169,0,0,1-.11.319,2.781,2.781,0,0,1-.368,2.127,2.972,2.972,0,0,1-.4-1.944,2.434,2.434,0,0,0,.395,2.022l0,.3a2.772,2.772,0,0,0,.465-2.388A2.456,2.456,0,0,0,1525.812,2993.646Z"
                fill="#c3bdc9"
                fill-rule="evenodd" id="path3488" transform="translate(-1514.006 -2971.933)" />
            <path d="M1316.29,2640.169c.092.881,1.211.614,1.664-.052l-.042-.12C1317.489,2640.545,1316.587,2641.032,1316.29,2640.169Z"
                fill="#c4bec9"
                fill-rule="evenodd" id="path3490" transform="translate(-1307.08 -2621.524)" />
            <path d="M1314.138,2710.95c-.41.852-.9,1.458-1.586,1.518a1.643,1.643,0,0,0,1.116-.5c.112-.194.256-.262.115,0a1.059,1.059,0,0,1-.2.24c.11-.044.337-.4.384-.426A3.507,3.507,0,0,1,1314.138,2710.95Z"
                fill="#dfdde2"
                fill-rule="evenodd" id="path3492" transform="translate(-1303.369 -2691.98)" />
            <path d="M1257.528,2833.23c-.008.1-.016.2-.015.273a1.848,1.848,0,0,1-1.8.735C1256.2,2834.252,1256.772,2834.3,1257.528,2833.23Z"
                fill="#c3beca"
                fill-rule="evenodd" id="path3494" transform="translate(-1246.928 -2813.405)" />
            <path d="M1149.409,2767.006a.685.685,0,0,1,.163-.853.725.725,0,0,0-.118,1.411.789.789,0,0,1-.341-1.036c.1-.164.253-.209.149-.026A.435.435,0,0,0,1149.409,2767.006Z"
                fill="#dfdde2"
                fill-rule="evenodd" id="path3496" transform="translate(-1140.904 -2746.797)" />
            <path d="M1650.18,2674.81a1.141,1.141,0,0,0,.37.381,1.223,1.223,0,0,0,1.548,1.19C1651.729,2676.65,1650.513,2676.584,1650.18,2674.81Z"
                fill="#dfdde2"
                fill-rule="evenodd" id="path3498" transform="translate(-1638.634 -2656.094)" />
            <path d="M1670.25,2829.529v.1a1.5,1.5,0,0,0,1.423.739A1.553,1.553,0,0,1,1670.25,2829.529Z"
                fill="#c4c0cd"
                fill-rule="evenodd" id="path3500" transform="translate(-1658.564 -2809.73)" />
            <path d="M1918.125,2752.43c.59.409.427,1.046-.207,1.312C1918.406,2753.421,1918.645,2753,1918.125,2752.43Z"
                fill="#e1dfe3"
                fill-rule="evenodd" id="path3502" transform="translate(-1904.498 -2733.17)" />
            <path d="M1848.74,2778.574c.561.1,1.51-.338,1-1.319A.852.852,0,0,1,1848.74,2778.574Z"
                fill="#c3bdc9"
                fill-rule="evenodd" id="path3504" transform="translate(-1835.805 -2757.822)" />
            <path d="M1667.634,2914.02c0,.056-.008.09-.022.181a2.638,2.638,0,0,0,1.06,1.271A2.75,2.75,0,0,1,1667.634,2914.02Z"
                fill="#e0dee3"
                fill-rule="evenodd" id="path3506" transform="translate(-1655.944 -2893.63)" />
            <path d="M1783.26,3025.426c.1.045.18.012.262.041.734.256,1.643-.18,1.371-1.068C1785.374,3024.867,1784.49,3026.211,1783.26,3025.426Z"
                fill="#c4becb"
                fill-rule="evenodd" id="path3508" transform="translate(-1770.783 -3003.236)" />
            <path d="M1860.062,2987.43c.556.551-.015,1.314-.758,1.053C1860.091,2988.589,1860.382,2987.937,1860.062,2987.43Z"
                fill="#c3beca"
                fill-rule="evenodd" id="path3510" transform="translate(-1846.295 -2966.526)" />
            <path d="M1135.56,2986.9a.679.679,0,0,0,.011,1.264c-.134-.1-.276-.444.14-.251a.754.754,0,0,0,.377.055C1135.31,2987.712,1135.483,2987.3,1135.56,2986.9Z"
                fill="#dfdde2"
                fill-rule="evenodd" id="path3512" transform="translate(-1127.192 -2966)" />
            <path d="M1301.041,2887.09a4.105,4.105,0,0,0,.085.632,2.928,2.928,0,0,1-.843,1.046,2.761,2.761,0,0,0,.75-1.053c-.62.967-1.049,1.115-1.493,1.138A1.949,1.949,0,0,0,1301.041,2887.09Z"
                fill="#dfdde2"
                fill-rule="evenodd" id="path3514" transform="translate(-1290.448 -2866.888)" />
            <path d="M1229.291,2982.68a.523.523,0,0,0,.081.214c-.781,1.505-1.823,1.462-2.18,1.338.676.07.441-.052.222-.092A2.016,2.016,0,0,0,1229.291,2982.68Z"
                fill="#c3bec9"
                fill-rule="evenodd" id="path3516" transform="translate(-1218.606 -2961.809)" />
            <path d="M1435.3,1765.716a.794.794,0,0,0,.207-.231.354.354,0,0,0,.113.113c-.148.048-.2.266-.282.267A.749.749,0,0,0,1435.3,1765.716Z"
                fill="#c4beca"
                fill-rule="evenodd" id="path3518" transform="translate(-1425.258 -1753.131)" />
            <path d="M1482.26,1764.526a.724.724,0,0,0,.726-.124c.025.026.06.057.094.087A.821.821,0,0,1,1482.26,1764.526Z"
                fill="#c3bdc9"
                fill-rule="evenodd" id="path3520" transform="translate(-1471.889 -1752.056)" />
            <path d="M1617.18,1774.751a.691.691,0,0,0,.515-.05.917.917,0,0,0,.089.1A.761.761,0,0,1,1617.18,1774.751Z"
                fill="#c3bdc9"
                fill-rule="evenodd" id="path3522" transform="translate(-1605.865 -1762.283)" />
            <path d="M1692.87,1721.5c.051.031.141.122.229.174a3.44,3.44,0,0,0-.2.312C1692.612,1721.729,1692.817,1721.463,1692.87,1721.5Z"
                fill="#c3bdc9"
                fill-rule="evenodd" id="path3524" transform="translate(-1680.907 -1709.448)" />
            <path d="M1406.21,1685.779l.1.139a.8.8,0,0,0,.3-.39.181.181,0,0,1-.072-.076A.628.628,0,0,1,1406.21,1685.779Z"
                fill="#c3bdc9"
                fill-rule="evenodd" id="path3526" transform="translate(-1396.371 -1673.658)" />
            <path d="M1461.416,1679.77l-.02.039a1.664,1.664,0,0,0,1.648-.015l-.072-.148A1.323,1.323,0,0,1,1461.416,1679.77Z"
                fill="#c3bdc9"
                fill-rule="evenodd" id="path3528" transform="translate(-1451.171 -1667.893)" />
            <path d="M1705.369,1642.533c.207-.039.135-.3.327-.375a.614.614,0,0,0,1.07-.009l.035.266a.852.852,0,0,1-.94.148.879.879,0,0,0-.046.327A.685.685,0,0,1,1705.369,1642.533Z"
                fill="#c3bdc9"
                fill-rule="evenodd" id="path3530" transform="translate(-1693.437 -1630.658)" />
            <path d="M1752.152,1571.65c.08.154.005.5.009.619a.524.524,0,0,1-.32-.249.04.04,0,0,0,.033-.02C1751.894,1571.9,1752.072,1571.859,1752.152,1571.65Z"
                fill="#c3bdc9"
                fill-rule="evenodd" id="path3532" transform="translate(-1739.584 -1560.653)" />
            <path d="M1596.87,1605.115l-.017.022a1.329,1.329,0,0,0,1.1-.109l-.063-.113A1.06,1.06,0,0,1,1596.87,1605.115Z"
                fill="#c3beca"
                fill-rule="evenodd" id="path3534" transform="translate(-1585.681 -1593.685)" />
            <path d="M1413.455,1621.81a.514.514,0,0,0,.125.078c-.331.3-.808.22-1.289-.033a.071.071,0,0,0,0-.044C1412.844,1622.111,1413.232,1622.026,1413.455,1621.81Z"
                fill="#c3bdc9"
                fill-rule="evenodd" id="path3536" transform="translate(-1402.406 -1610.462)" />
            <path d="M1366.627,1621.55c.117.185-.18.245-.181.521l-.116-.148C1366.324,1621.743,1366.566,1621.771,1366.627,1621.55Z"
                fill="#c3bec9"
                fill-rule="evenodd" id="path3538" transform="translate(-1356.769 -1610.203)" />
            <path d="M1323.974,1482.124l-.227-.346c-.239-.312.552-.374.466-.957a1.2,1.2,0,0,0,.152.118c-.029.47-.44.457-.447.78a.162.162,0,0,1-.092-.133.281.281,0,0,0-.046.039C1323.678,1481.748,1323.825,1481.817,1323.974,1482.124Z"
                fill="#c3bec9"
                fill-rule="evenodd" id="path3540" transform="translate(-1314.44 -1470.459)" />
            <path d="M1393.58,1547.238a.755.755,0,0,0,.675-.206.782.782,0,0,0,.116.107A.9.9,0,0,1,1393.58,1547.238Z"
                fill="#c3bdc9"
                fill-rule="evenodd" id="path3542" transform="translate(-1383.829 -1536.207)" />
            <path d="M1504.512,1557.53l-.026.021a1.245,1.245,0,0,0,1.207.021.666.666,0,0,1-.11-.084A1.08,1.08,0,0,1,1504.512,1557.53Z"
                fill="#c4beca"
                fill-rule="evenodd" id="path3545" transform="translate(-1493.959 -1546.589)" />
            <path d="M1675.529,1551.268l-.02.025a1.069,1.069,0,0,0,.845-.03.378.378,0,0,0-.064-.123A.829.829,0,0,1,1675.529,1551.268Z"
                fill="#c4bec9"
                fill-rule="evenodd" id="path3547" transform="translate(-1663.786 -1540.286)" />
            <path d="M1424.17,1481.49a.986.986,0,0,0,1.075-.142.5.5,0,0,0,.122.109A1.13,1.13,0,0,1,1424.17,1481.49Z"
                fill="#c4bec9"
                fill-rule="evenodd" id="path3549" transform="translate(-1414.206 -1470.983)" />
            <path d="M1594.5,1479.1l-.02.018a1.131,1.131,0,0,0,1.057,0c-.019-.058-.037-.108-.055-.151A.925.925,0,0,1,1594.5,1479.1Z"
                fill="#c3bdc9"
                fill-rule="evenodd" id="path3551" transform="translate(-1583.32 -1468.624)" />
            <path d="M1279.47,1273.3l.052.03c.055-.079.1-.1.123-.067s-.019.089.04.14c.186-.148.614-.246.665-.466.078.22.345.226.562.606-.051-.289-.348-.368-.469-.562s-.049-.437.047-.75c-.2.273-.043.66-.371.833C1279.91,1273.18,1279.512,1273.156,1279.47,1273.3Z"
                fill="#c3bdc9"
                fill-rule="evenodd" id="path3553" transform="translate(-1270.518 -1263.334)" />
            <path d="M1479.371,1228.93l.011.259c-.342.134-.075.988-.211,1.175-.054-.729-.354-.992.2-1.434Z"
                fill="#c3bdc9"
                fill-rule="evenodd" id="path3555" transform="translate(-1468.694 -1220.331)" />
            <path d="M1493.176,1317.65h.041c.044.478.546.523.632.994-.107-.326-.391-.421-.543-.595-.087.365-.528.474-.639.68C1492.635,1318.559,1493.274,1318.321,1493.176,1317.65Z"
                fill="#c3bdc9"
                fill-rule="evenodd" id="path3557" transform="translate(-1482.221 -1308.43)" />
            <path d="M1639.641,1236.43c-.263.416.26.683-.022,1.375.147-.9-.484-.83-.085-1.485.139.135.613.271.658.5C1640.032,1236.593,1639.786,1236.576,1639.641,1236.43Z"
                fill="#c3bdc9"
                fill-rule="evenodd" id="path3559" transform="translate(-1627.929 -1227.668)" />
            <path d="M1664.255,1316.059c.049.16.093.224.133.329-.144.47-.712.634-.743.806C1663.547,1316.974,1664.259,1316.852,1664.255,1316.059Z"
                fill="#c3bdc9"
                fill-rule="evenodd" id="path3561" transform="translate(-1651.996 -1306.85)" />
            <path d="M1786.2,1232.726c-.089-.019-.175,0-.273-.1a.881.881,0,0,1-.03.336c.186.107.309,1.1.384,1.149a2.479,2.479,0,0,0-.281-1.3l.011-.052A.162.162,0,0,0,1786.2,1232.726Z"
                fill="#c3bdc9"
                fill-rule="evenodd" id="path3563" transform="translate(-1773.402 -1223.997)" />
            <path d="M1331.23,1122.344a2.738,2.738,0,0,1,.561-.737,3.929,3.929,0,0,0,.832-.475l.174-.454c-.388.57-.845.96-1.508.824.039.022.061.077.333.092A2.508,2.508,0,0,0,1331.23,1122.344Z"
                fill="#c3bdc9"
                fill-rule="evenodd" id="path3565" transform="translate(-1321.916 -1112.835)" />
            <path d="M1317.5,1029.307c.347.174.772.263,1.5-.776a.972.972,0,0,0,.451-.277C1318.982,1029.38,1317.65,1030.068,1317.5,1029.307Z"
                fill="#dfdde2"
                fill-rule="evenodd" id="path3567" transform="translate(-1308.281 -1021.059)" />
            <path d="M1539.29,638.249c.556-2.1,2.242-3.347.783-4.464C1541.131,635.617,1539.448,636.392,1539.29,638.249Z"
                fill="#f1eef0"
                fill-rule="evenodd" id="path3569" transform="translate(-1528.52 -629.35)" />
            <path d="M1481.73,981.476c.029.55.725.142.891-.218C1482.339,981.448,1482.06,981.619,1481.73,981.476Z"
                fill="#dfdde2"
                fill-rule="evenodd" id="path3571" transform="translate(-1471.363 -974.391)" />
            <path d="M1526.819,884.343c.064-.094.076-.007.185.018a1.121,1.121,0,0,1-.92.687A1.346,1.346,0,0,0,1526.819,884.343Z"
                fill="#dfdde2"
                fill-rule="evenodd" id="path3573" transform="translate(-1515.406 -878.112)" />
            <path d="M1606.8,731l.055.055a.312.312,0,0,0,.23-.073.113.113,0,0,1-.057.115,1.805,1.805,0,0,1-.053.783c.067-.068.121.029.182.025a1.219,1.219,0,0,0,0-1.135C1607.159,730.9,1607.018,731.032,1606.8,731Z"
                fill="#c3bdc9"
                fill-rule="evenodd" id="path3575" transform="translate(-1595.557 -725.652)" />
            <path d="M1477.24,732.217c.422-.172.662.13.852.159a.833.833,0,0,1-.212,1.064A.789.789,0,0,0,1477.24,732.217Z"
                fill="#c3bdc9"
                fill-rule="evenodd" id="path3577" transform="translate(-1466.904 -727.041)" />
            <path d="M1531.37,1139.274c.459.215.673-.307.891-.51a1.592,1.592,0,0,1-.085-.669C1531.777,1138.312,1531.788,1139.1,1531.37,1139.274Z"
                fill="#cecad5"
                fill-rule="evenodd" id="path3579" transform="translate(-1520.655 -1130.132)" />
            <path d="M1569.384,778.48c-.038.017-.041.165-.092.163-.032,1.057-.993,1.644-1.219,3.17.14-.164.241-.808.6-1.4A2.859,2.859,0,0,0,1569.384,778.48Z"
                fill="#cecad5"
                fill-rule="evenodd" id="path3581" transform="translate(-1557.101 -773.033)" />
            <path d="M1650.567,1063.85c-.383,1.032.376,1.041.442,1.377A.8.8,0,0,1,1650.567,1063.85Z"
                fill="#dfdde2"
                fill-rule="evenodd" id="path3583" transform="translate(-1638.776 -1056.406)" />
            <path d="M1663.48,640.776c1.273.828.181,2.5-.3,2.947C1663.374,643.3,1664.521,642.14,1663.48,640.776Z"
                fill="#dfdde2"
                fill-rule="evenodd" id="path3585" transform="translate(-1651.548 -636.292)" />
            <path d="M1692.49,575.43c.13.239.34.616.031.541.541,1.2-.052,1.819-.35,2.488-.628,1.637.412.988.29,2.129.354-.413-.107-1.012-.087-1.218a8.7,8.7,0,0,1,.225-1.34.772.772,0,0,0,.329.431c-.243-.851.516-2.528-.439-3.031Z"
                fill="#cecad5"
                fill-rule="evenodd" id="path3587" transform="translate(-1680.129 -571.403)" />
            <path d="M1759.59,977.959a.73.73,0,0,0,.2.24c.051.333-.417,1.389.287,1.468C1759.508,979.954,1759.2,979.134,1759.59,977.959Z"
                fill="#cecad5"
                fill-rule="evenodd" id="path3589" transform="translate(-1747.104 -971.116)" />
            <path d="M1740.49,527.648c.12.008.406.209.672,0,.183.249-.158.46-.517.274C1740.552,527.858,1740.849,527.83,1740.49,527.648Z"
                fill="#c3bdc9"
                fill-rule="evenodd" id="path3591" transform="translate(-1728.312 -523.952)" />
            <path d="M1436.9,541.077a1.056,1.056,0,0,1,.319.47.835.835,0,0,1,.225.031A1.206,1.206,0,0,0,1436.9,541.077Z"
                fill="#dfdde2"
                fill-rule="evenodd" id="path3593" transform="translate(-1426.847 -537.291)" />
            <path d="M1602.32,449.886c1.108.3,1-.219,1.2-.293C1603.719,449.908,1603.179,450.315,1602.32,449.886Z"
                fill="#c3bdc9"
                fill-rule="evenodd" id="path3595" transform="translate(-1591.109 -446.447)" />
            <path d="M1386.642,460.505a.345.345,0,0,0-.157-.013c.1-.794.978-.29,1.453.008C1387.34,460.213,1386.589,459.849,1386.642,460.505Z"
                fill="#c3bec9"
                fill-rule="evenodd" id="path3597" transform="translate(-1376.785 -456.847)" />
            <path d="M1409.077,470.382c-.049-.9,1.251.128,1.852.165-.419.047-1.8-.87-1.79-.149Z"
                fill="#f1eef0"
                fill-rule="evenodd" id="path3599" transform="translate(-1399.217 -466.724)" />
            <path d="M1421.22,487.867l.11.042c.011-.079.041-.17.081-.178.255-.051.016.083.057.125s.1.068.157.1q0-.058.008-.136c0-.206.594.125,1.009.261.046.122-.23.276-.447.233a.615.615,0,0,0,.792-.175c.318.024.389-.028.46-.107a3.614,3.614,0,0,1-.966-.1C1421.92,487.774,1421.235,487.3,1421.22,487.867Z"
                fill="#c3bdc9"
                fill-rule="evenodd" id="path3601" transform="translate(-1411.276 -484.182)" />
            <path d="M1488.872,511.79a.381.381,0,0,1,.193.044c-.124.192.058.376.159.348a.371.371,0,0,0,.185.094C1489.247,512.311,1488.7,512.142,1488.872,511.79Z"
                fill="#b6b1bf"
                fill-rule="evenodd" id="path3603" transform="translate(-1478.422 -508.208)" />
            <path d="M1268.169,524.006c-.615-1.182,1.163-1.391,1.344-.413a2.186,2.186,0,0,1,.83.225c.759.55.3.865.145.84-.353.006-.42-.333-.936-.2-.124.046-.131.11-.186.108-.308-.078.256-.7.862-.251.054.04.172-.038.068-.154-.406-.41-1.11-.185-1.265-.146A.547.547,0,0,0,1268.169,524.006Z"
                fill="#f6d155"
                fill-rule="evenodd" id="path3665" transform="translate(-1259.168 -519.313)" />
            <path d="M1537.7,532.862c.077.062.469.125.478.162C1538.049,533.32,1537.639,533.229,1537.7,532.862Z"
                fill="#aaa3b5"
                fill-rule="evenodd" id="path3605" transform="translate(-1526.932 -529.133)" />
            <path d="M1913.05,1619.59c0,.005-.009.009,0,.022a.96.96,0,0,0,.344.085l.322,1.9c-.025-.493-.059-1-.07-1.474a2.469,2.469,0,0,1-.089-.425.724.724,0,0,0,.122-.022,2.039,2.039,0,0,0,.8,1.534,2.468,2.468,0,0,1-.735-1.559c.176-.1.257-.218.314-.236a.429.429,0,0,0-.019-.229.82.82,0,0,1-.695.34c-.024,0,0,.033,0,.033C1913.481,1619.738,1913.2,1619.625,1913.05,1619.59Z"
                fill="#c3bdc9"
                fill-rule="evenodd" id="path3607" transform="translate(-1899.661 -1607.85)" />
            <path d="M2011.92,1898.671l.015.288a1.133,1.133,0,0,0,.584-.7c.1.971.11,1.916.676,2.11a5.56,5.56,0,0,1-.314-2.106.77.77,0,0,1-.1.107,1.7,1.7,0,0,1-.429-.366.925.925,0,0,1-.429.665Z"
                fill="#cecad5"
                fill-rule="evenodd" id="path3609" transform="translate(-1997.843 -1884.725)" />
            <path d="M2072.06,1657.57a.78.78,0,0,0,.259.039l.1,1.411Z" fill="#dfdde2"
                fill-rule="evenodd" id="path3611" transform="translate(-2057.562 -1645.971)" />
            <path d="M2128.355,1638.179l.047-.034a1.672,1.672,0,0,0,.5.664l.609,4.1-.881-4.107a2.02,2.02,0,0,1-.517,1.495l-.034-.269A1.907,1.907,0,0,0,2128.355,1638.179Z"
                fill="#c3bdc9"
                fill-rule="evenodd" id="path3613" transform="translate(-2113.186 -1626.683)" />
            <path d="M2168.587,1777.43a1.333,1.333,0,0,0,.319.136c.37,1.236.509,3.672.023,4.554l-.042-.334c-.85-.65-1.062-2.46-1.233-3.472l.026-.05c.164.925.357,2.707,1.189,3.431a7.528,7.528,0,0,0-.107-4.118A1.43,1.43,0,0,0,2168.587,1777.43Z"
                fill="#c4bec9"
                fill-rule="evenodd" id="path3615" transform="translate(-2152.487 -1764.993)" />
            <path d="M2226.66,1584.777a1.4,1.4,0,0,0,.23-.031l.81,1.21Z" fill="#dfdde2"
                fill-rule="evenodd" id="path3617" transform="translate(-2211.081 -1573.657)" />
            <path d="M2351,1798.34a4.132,4.132,0,0,0,.418.107c0,.037,1.185,3.072,2.009,3.305-1.054.209-1.583-1.639-2.271-2.73Q2351.083,1798.676,2351,1798.34Z"
                fill="#dfdde2"
                fill-rule="evenodd" id="path3619" transform="translate(-2334.55 -1785.756)" />
            <path d="M2326.156,1537.33a.108.108,0,0,1-.037.041,2.094,2.094,0,0,1,.429,1.6l.2.255a2.615,2.615,0,0,0-.144-1.386l2.391,3.473-2.114-3.381.447.063A2.013,2.013,0,0,1,2326.156,1537.33Z"
                fill="#c3bdc9"
                fill-rule="evenodd" id="path3621" transform="translate(-2309.844 -1526.573)" />
            <path d="M2440.182,1630.7a.823.823,0,0,0,.235-.023c.474.772,1.695,2.174,1.552,4.081l-.149-.29c-1.133-.262-1.921-1.685-2.323-2.263.664.875,1.415,2.015,2.294,2.195C2441.864,1632.98,2440.79,1631.583,2440.182,1630.7Z"
                fill="#c3bdc9"
                fill-rule="evenodd" id="path3623" transform="translate(-2422.428 -1619.27)" />
            <path d="M2572.74,1595.663l.041.07c1.048.558,2.224,1.663,2.952.85-.755.3-1.978-.762-2.782-1.164l.037.174A.889.889,0,0,1,2572.74,1595.663Z"
                fill="#dfdde2"
                fill-rule="evenodd" id="path3625" transform="translate(-2554.739 -1584.255)" />
            <path d="M2359.4,1434.422a.169.169,0,0,1-.007.074l1.3.809-1.19-.95A.39.39,0,0,1,2359.4,1434.422Z"
                fill="#dfdde2"
                fill-rule="evenodd" id="path3627" transform="translate(-2342.885 -1424.318)" />
            <path d="M2592.59,1552.64a2.29,2.29,0,0,1,.063.266c1.56.722,2.5.544,2.948.261l-.241-.089C2594.672,1553.533,2593.01,1552.92,2592.59,1552.64Z"
                fill="#c3bdc9"
                fill-rule="evenodd" id="path3629" transform="translate(-2574.449 -1541.776)" />
            <path d="M2413.375,1210.274a.2.2,0,0,1-.016.063,1.925,1.925,0,0,1,1.108,1.445l.225.186a1.9,1.9,0,0,0-.625-1.3l3.169,1.241-3.078-1.442a1.8,1.8,0,0,0,1.191-.543l.726-.026c.62-.1,1.324-.454,1.4-.789l-.233.026c-.3.657-1.469.635-2.077.658C2414.881,1210.317,2413.985,1210.356,2413.375,1210.274Z"
                fill="#c3bdc9"
                fill-rule="evenodd" id="path3631" transform="translate(-2396.474 -1200.643)" />
            <path d="M2633.544,1310.611a1,1,0,0,1-.248.146,5.722,5.722,0,0,1,.922.272c.82.086,1.632-.039,1.667-.737C2635.541,1310.848,2634.558,1310.746,2633.544,1310.611Z"
                fill="#dfdde2"
                fill-rule="evenodd" id="path3633" transform="translate(-2614.871 -1301.124)" />
            <path d="M2413.73,1286.02a1.546,1.546,0,0,1,.044.193l1.68-.044C2414.88,1286.119,2414.292,1286.076,2413.73,1286.02Z"
                fill="#dfdde2"
                fill-rule="evenodd" id="path3635" transform="translate(-2396.841 -1277.021)" />
            <path d="M2529.49,1189.31a4.49,4.49,0,0,1,.9.528l-.222-.2c.719-.059,1.449-.117,2.258-.162l-2.555-.016Z"
                fill="#c3bdc9"
                fill-rule="evenodd" id="path3637" transform="translate(-2511.791 -1180.988)" />
            <path d="M2446.562,902.017a.713.713,0,0,1-.041.107l.562-.163c.841-.6.881-.9.987-1.23l1.282-.8-1.456.724a3.467,3.467,0,0,0-1.234.181,3.036,3.036,0,0,1,1.356-.092l-.155.1A2.111,2.111,0,0,1,2446.562,902.017Z"
                fill="#c3bdc9"
                fill-rule="evenodd" id="path3639" transform="translate(-2429.403 -893.636)" />
            <path d="M2451.45,1040.872a.542.542,0,0,1,.039.144c.4-.215.776-.456,1.15-.7C2452.242,1040.513,2451.846,1040.711,2451.45,1040.872Z"
                fill="#dfdde2"
                fill-rule="evenodd" id="path3641" transform="translate(-2434.297 -1033.039)" />
            <path d="M2606.04,987.938a8.312,8.312,0,0,1,1.382-.01c.11-.062,1.254-.4.977-1-.329.662-1.55.889-1.646.943C2606.561,987.89,2606.087,987.909,2606.04,987.938Z"
                fill="#dfdde2"
                fill-rule="evenodd" id="path3643" transform="translate(-2587.806 -980.021)" />
            <path d="M2633.14,872.4l.253-.11a1.787,1.787,0,0,1-.481.756,2.11,2.11,0,0,1-1.481.819.646.646,0,0,0,.042-.065A2.623,2.623,0,0,0,2633.14,872.4Z"
                fill="#dfdce1"
                fill-rule="evenodd" id="path3645" transform="translate(-2613.02 -866.185)" />
            <path d="M2481.388,695.454l-.073.115a6.592,6.592,0,0,1,1.724-.972c.431-.456.53-.906.35-1.168C2483.417,694.272,2482.079,694.9,2481.388,695.454Z"
                fill="#dfdde2"
                fill-rule="evenodd" id="path3647" transform="translate(-2463.953 -688.577)" />
            <path d="M2382.668,819.249l-.026.214a1.9,1.9,0,0,0,.745-1.69l-.191.2-.831.674a1.116,1.116,0,0,1,.125.12l.706-.773A1.66,1.66,0,0,1,2382.668,819.249Z"
                fill="#c3bec9"
                fill-rule="evenodd" id="path3649" transform="translate(-2365.696 -812.051)" />
            <path d="M2522.075,591.323l-.05.178a3.81,3.81,0,0,0,.8-.674,2.929,2.929,0,0,0,.721-1.581l-.256.206A2.588,2.588,0,0,1,2522.075,591.323Z"
                fill="#dfdde2"
                fill-rule="evenodd" id="path3651" transform="translate(-2504.379 -585.122)" />
            <path d="M2487.29,625.684a2.147,2.147,0,0,1,.3,0l1.168-1.34Z" fill="#c3bdc9"
                fill-rule="evenodd" id="path3653" transform="translate(-2469.887 -619.977)" />
            <path d="M2283.236,706.868l-.144.167a1.425,1.425,0,0,1-.428,1.312l.016.029.034-.01a2.1,2.1,0,0,1,1.2-.726,3.052,3.052,0,0,0-.74.235,1.623,1.623,0,0,0,.063-1.006Z"
                fill="#c3bdc9"
                fill-rule="evenodd" id="path3655" transform="translate(-2266.692 -701.922)" />
            <path d="M2371.909,467.772l0,.107a5.4,5.4,0,0,0,1.223-1,2.23,2.23,0,0,0,.543-1.238l-.219.172C2373.41,466.73,2372.235,467.515,2371.909,467.772Z"
                fill="#dfdde2"
                fill-rule="evenodd" id="path3657" transform="translate(-2355.31 -462.387)" />
            <path d="M2236.74,512.15a5.154,5.154,0,0,1,.9-.329l1.471-1.367c-.393.285-1.22,1-1.609,1.291C2237.367,511.845,2237.232,511.842,2236.74,512.15Z"
                fill="#dfdde2"
                fill-rule="evenodd" id="path3659" transform="translate(-2221.09 -506.883)" />
            <path d="M1964.3,491.789c-3.719.649-5.785,5.136-3.3,4.732l-.139-.034a.529.529,0,0,1-.577-.664.686.686,0,0,1,.412-.492.777.777,0,0,1,.227-.748,1.583,1.583,0,0,1,.34-.509C1961.658,492.657,1963.631,491.952,1964.3,491.789Z"
                fill="#f1eef0"
                fill-rule="evenodd" id="path3661" transform="translate(-1946.202 -488.348)" />
            <path d="M2060.583,729.276a2.149,2.149,0,0,0-1.2.8c-.01.022.005.052-.16.141l.008.029c.16-.068.592,0,.186.1a.646.646,0,0,1,.653.452c.86-.131,1.073.5.857.914a.731.731,0,0,1-.1,1.241c.189.42.289.979-.29,1.194,0,.375-.053.959-.94.951a.713.713,0,0,1-.956.455.161.161,0,0,1-.005.031c-.009.03.221.087.225.073.182.021.2.14-.018.089a1.5,1.5,0,0,1-.209-.071h0a.087.087,0,0,1-.01.057.867.867,0,0,0,1.092-.449.951.951,0,0,0,1.008-1.008.9.9,0,0,0,.311-1.254.851.851,0,0,0,.086-1.343c.258-.867-.515-1.1-.922-1.04a.78.78,0,0,0-.324-.329l.729-.99-.885.912a1,1,0,0,0-.348-.039,2.121,2.121,0,0,1,1.215-.912Z"
                fill="#c3bdc9"
                fill-rule="evenodd" id="path3663" transform="translate(-2044.217 -724.173)" />
            <path d="M1370.81,550.627c.111.165.3-.046.606.28l.037-.016a.593.593,0,0,0-.538-.481c.119.1.032.111.028.177S1370.944,550.718,1370.81,550.627Z"
                fill="#dfa12f"
                fill-rule="evenodd" id="path3667" transform="translate(-1361.219 -546.559)" />
            <path d="M1300.457,610.806a.562.562,0,0,1,.768.1c.734-.215,1.253-.018,1.325.277.046-.08-.162-.524-1-.449C1300.838,610.233,1300.433,610.685,1300.457,610.806Z"
                fill="#dfa12f"
                fill-rule="evenodd" id="path3669" transform="translate(-1291.357 -606.231)" />
            <path d="M1457.053,662.263c-.127-.005.269-.474.92-.026.233.091.344-.028.3-.219a1.024,1.024,0,0,0-.141-.329c.327.246.367.548.145.67C1457.933,662.531,1457.691,661.92,1457.053,662.263Z"
                fill="#dea12f"
                fill-rule="evenodd" id="path3671" transform="translate(-1446.835 -657.058)" />
            <path d="M968.483,1600.008l.144.208-.04-.025a.837.837,0,0,1-.821.03l-.02-.015a1.057,1.057,0,0,1-.91-.193.476.476,0,0,0,.218.307l-.44,1.93.213-1.811a1.869,1.869,0,0,1-1.039,1.237l.035-.2a1.889,1.889,0,0,0,.94-1.489,1.329,1.329,0,0,1-.5,0l-.416,1.43.2-1.479a2.978,2.978,0,0,1-.48-.421v-.025c.045.063.091-.129.084-.188a.941.941,0,0,0,1.183.455.568.568,0,0,1-.02.163l.02,0c.018,0,.025-.046.037-.084-.013-.009-.016-.029-.022-.045l0-.015c.237.427.827.227.9.262a.412.412,0,0,0,.015.139l.01.015a.174.174,0,0,0,0-.1l-.02-.04.017.01A.565.565,0,0,0,968.483,1600.008Z"
                fill="#c3bdc9"
                fill-rule="evenodd" id="path3673" transform="translate(-958.803 -1588.114)" />
            <path d="M1073.137,1748.509a1.892,1.892,0,0,0,.43.146,3.338,3.338,0,0,1-1.014,2.246l.012-.255a2.449,2.449,0,0,1-.237-1.163l.039-.04a3.016,3.016,0,0,0,.21,1.183,2.543,2.543,0,0,0,.809-1.855.126.126,0,0,0-.052-.131A1.5,1.5,0,0,1,1073.137,1748.509Z"
                fill="#c1c0c8"
                fill-rule="evenodd" id="path3675" transform="translate(-1064.825 -1736.274)" />
            <path d="M937.979,1906.817c.522.139.868-.868,1.067-1.547a2.134,2.134,0,0,1-.231-1.194l-.045.044C938.715,1905.177,938.706,1906.344,937.979,1906.817Z"
                fill="#c3bdc9"
                fill-rule="evenodd" id="path3677" transform="translate(-931.417 -1890.753)" />
            <path d="M951.359,1638.189l.031.031a2.372,2.372,0,0,0,.025,1.63C951.229,1639.576,951.073,1639.141,951.359,1638.189Z"
                fill="#dfdde3"
                fill-rule="evenodd" id="path3679" transform="translate(-944.547 -1626.726)" />
            <path d="M725.741,1701.689l-.1.161-1.109,4.5,1.176-3.751a1.8,1.8,0,0,0,.437.8,6.5,6.5,0,0,1-1.7,3.257l.056-.186a8.7,8.7,0,0,1,.378-3.953,8.763,8.763,0,0,0-.479,4.2l-.112.346c1.164-.8,1.848-2.787,2.106-3.8a.616.616,0,0,1-.206.1A1.807,1.807,0,0,1,725.741,1701.689Z"
                fill="#c3bdc9"
                fill-rule="evenodd" id="path3681" transform="translate(-719.212 -1689.782)" />
            <path d="M758.9,1521.52a2.091,2.091,0,0,0,.272.44c.043.072.092.1.153.015l.049-.079a.536.536,0,0,0,.529.168l-.292.673a1.831,1.831,0,0,1-1.237.955l.139-.257c.583-.056,1-.63,1.217-1.163a1.331,1.331,0,0,1-.45-.2l-.688,1.2.455-1.207C759.139,1521.875,758.9,1521.726,758.9,1521.52Z"
                fill="#c3bdc9"
                fill-rule="evenodd" id="path3683" transform="translate(-753.069 -1510.873)" />
            <path d="M401.924,1820.63a2.09,2.09,0,0,1-.257.089c-.749,1.678-1.169,3.176-2.5,3.644,1.212.23,2.026-1.711,2.32-2.294A8.957,8.957,0,0,0,401.924,1820.63Z"
                fill="#cecad5"
                fill-rule="evenodd" id="path3685" transform="translate(-396.371 -1807.891)" />
            <path d="M760.606,1528.19a2.052,2.052,0,0,0-.308,1.893l.024-.031a2.284,2.284,0,0,1,.283-1.861Z"
                fill="#e0dee4"
                fill-rule="evenodd" id="path3687" transform="translate(-754.885 -1517.497)" />
            <path d="M276.257,1549.554a3.479,3.479,0,0,0-.012.725c-.908,1.608-2.425,3.093-3.3,3.154,1.117-1.5,2.233-3.041,3.35-4.562a1.353,1.353,0,0,0,.215-.129,1.164,1.164,0,0,0-.2.44l-3.07,3.936c1.026-.085,2.707-2.516,2.959-3.172A1.274,1.274,0,0,1,276.257,1549.554Z"
                fill="#c3bdc9"
                fill-rule="evenodd" id="path3689" transform="translate(-271.035 -1537.906)" />
            <path d="M298.965,1617.43l.072-.089c-.088-1.519,1.632-3.324,2.1-3.891C301.055,1613.614,298.862,1615.54,298.965,1617.43Z"
                fill="#dfdce1"
                fill-rule="evenodd" id="path3691" transform="translate(-296.87 -1602.159)" />
            <path d="M121.269,1599.26c.258.4.691.656,2.316-.332.325-.358.65-.726.975-1.034l-.079-.005c-.547.228-1.959,1.708-3.211,1.371Z"
                fill="#dfdde2"
                fill-rule="evenodd" id="path3693" transform="translate(-120.421 -1586.709)" />
            <path d="M545.387,1386.469a1.552,1.552,0,0,0-1.094,1.281l-.173.1a2.114,2.114,0,0,0,2.093-.616,1.186,1.186,0,0,1-.49-.46l-.143.069a14.493,14.493,0,0,1-1.19.851l1.274-.648a1.347,1.347,0,0,0,.336.277,2.063,2.063,0,0,1-1.67.428A1.532,1.532,0,0,1,545.387,1386.469Z"
                fill="#c3bdc9"
                fill-rule="evenodd" id="path3695" transform="translate(-540.314 -1376.768)" />
            <path d="M317.595,1540.19a1.45,1.45,0,0,0-.049.308,5.711,5.711,0,0,1-1.165.318c-.025.007-.138.051-.182-.031a.253.253,0,0,0-.164-.035c-.01-.027-.065-.015-.072-.04A4.137,4.137,0,0,0,317.595,1540.19Z"
                fill="#cecad5"
                fill-rule="evenodd" id="path3697" transform="translate(-313.753 -1529.413)" />
            <path d="M146.854,1428.689c-.279.136-1.441.753-1.641,1.344a2.591,2.591,0,0,0,1.247,0c-.012-.016-.059-.013-.065-.039a2.6,2.6,0,0,1-1.067.007l.1-.052C145.466,1429.445,146.664,1428.818,146.854,1428.689Z"
                fill="#dfdde1"
                fill-rule="evenodd" id="path3699" transform="translate(-144.198 -1418.692)" />
            <path d="M186.213,1377.794c1.893-.7,2.81-1.266,3.821-1.606v.035c-.081.051-.744.207-1,.584Z"
                fill="#c3bdc9"
                fill-rule="evenodd" id="path3701" transform="translate(-184.911 -1366.558)" />
            <path d="M484.131,1248.7c-.131.055-.258.1-.4.171a2.224,2.224,0,0,1-.983-.371l.052-.021a2.446,2.446,0,0,0,.336.185c.181.061.225-.012.045-.077a1.487,1.487,0,0,1-.472-.252,1.612,1.612,0,0,1,.78-.64c-.278.181-.6.341-.682.616.432-.064.889-.14,1.452-.262a2.024,2.024,0,0,0,.164.255l-.014.018-.084-.1-1.508.116A2.672,2.672,0,0,0,484.131,1248.7Z"
                fill="#c3bdc9"
                fill-rule="evenodd" id="path3703" transform="translate(-479.337 -1238.964)" />
            <path d="M131.522,1308.69c.176.582,1.635.434,2.5.374l.045-.015a.767.767,0,0,1-.168-.146c-.359-.075-1.991.268-2.375-.213Z"
                fill="#dfdde2"
                fill-rule="evenodd" id="path3705" transform="translate(-130.603 -1299.532)" />
            <path d="M136.732,1126.51l.017.015a2.137,2.137,0,0,0-.307.284,3.256,3.256,0,0,1-2.444-.849,2.231,2.231,0,0,1,1.2-.413,2.254,2.254,0,0,0-1.037.423h-.1c.628.7,2.3,1.014,2.664.539Z"
                fill="#dfdde2"
                fill-rule="evenodd" id="path3707" transform="translate(-133.061 -1117.671)" />
            <path d="M169.707,1189.19c.9.127,1.776.237,2.7.381a1.194,1.194,0,0,1,.7-.205,1.852,1.852,0,0,0-.4.012C171.671,1189.393,170.7,1189.265,169.707,1189.19Z"
                fill="#c3bdc9"
                fill-rule="evenodd" id="path3709" transform="translate(-168.52 -1180.869)" />
            <path d="M529.907,1036.747a.745.745,0,0,0-.161.356,1.663,1.663,0,0,1-1.183-1,1.971,1.971,0,0,1,1.445-.27c-1.047-.049-1.323.225-1.368.28a10.974,10.974,0,0,0,1.514.346.642.642,0,0,0-.166.161c-.326-.133-.927-.318-1.356-.485a1.508,1.508,0,0,0,.881.826c.1.027.217.079.257-.052A.377.377,0,0,1,529.907,1036.747Z"
                fill="#c3bdc9"
                fill-rule="evenodd" id="path3711" transform="translate(-524.866 -1028.562)" />
            <path d="M183.142,984.124a2.625,2.625,0,0,0,2.227.658.575.575,0,0,0,.151.228,4.764,4.764,0,0,0-1.056-.067A2.012,2.012,0,0,1,183.142,984.124Z"
                fill="#dfdde2"
                fill-rule="evenodd" id="path3713" transform="translate(-181.861 -977.238)" />
            <path d="M227.607,865.162a.219.219,0,0,0,.067.032,2.148,2.148,0,0,0-.512.277,3.615,3.615,0,0,1-1.947-1.314,2.765,2.765,0,0,1,1.514,0c-.449,0-.986-.1-1.254.082l-.2-.072C225.353,864.432,226.766,865.663,227.607,865.162Z"
                fill="#dfdde2"
                fill-rule="evenodd" id="path3715" transform="translate(-223.64 -858.004)" />
            <path d="M272.591,896.089c.844.295,1.645.587,2.318.868a1.512,1.512,0,0,1,.618,0,.81.81,0,0,1-.136-.151l-.017.007.084.111C274.314,896.533,273.469,896.32,272.591,896.089Z"
                fill="#c3bdc9"
                fill-rule="evenodd" id="path3717" transform="translate(-270.684 -889.819)" />
            <path d="M333.877,703.68a.917.917,0,0,1-.131-.426,2.652,2.652,0,0,1-2.11-1.267C331.659,702.682,332.9,703.226,333.877,703.68Z"
                fill="#dfdde2"
                fill-rule="evenodd" id="path3719" transform="translate(-329.316 -697.076)" />
            <path d="M655.824,877.162a.588.588,0,0,1-.136.136.07.07,0,0,1-.079,0,1.316,1.316,0,0,1-.6-1.012,2.327,2.327,0,0,1,1.7.411,3.132,3.132,0,0,0-1.618-.371C655.07,876.635,655.305,877.225,655.824,877.162Z"
                fill="#c3bdc9"
                fill-rule="evenodd" id="path3721" transform="translate(-650.424 -870.125)" />
            <path d="M676.35,893.618l.905.66a.859.859,0,0,1,.351.059.666.666,0,0,1,.037-.1C677.144,894.034,676.779,893.826,676.35,893.618Z"
                fill="#c3bdc9"
                fill-rule="evenodd" id="path3723" transform="translate(-671.618 -887.365)" />
            <path d="M384.213,592.191l.241.143c-.031.548.94,1.613,2.022,1.7a1.934,1.934,0,0,0-.514.073,5.727,5.727,0,0,1-1.141-.948c-.06.009-.107-.141-.206-.094A1.663,1.663,0,0,1,384.213,592.191Z"
                fill="#dfdde2"
                fill-rule="evenodd" id="path3725" transform="translate(-381.525 -588.047)" />
            <path d="M422.533,613.107a2.794,2.794,0,0,0-1.319-.276c.975.707,1.508,1.153,2.225,1.707a4.656,4.656,0,0,1,.962.318,1.172,1.172,0,0,1-.091-.262.44.44,0,0,0,.049.22,31.631,31.631,0,0,1-3.037-1.924A2.437,2.437,0,0,1,422.533,613.107Z"
                fill="#c4beca"
                fill-rule="evenodd" id="path3727" transform="translate(-418.268 -608.54)" />
            <path d="M549.144,476.472a2.393,2.393,0,0,1-.931-1.277,5.141,5.141,0,0,1,2.05.864,3.817,3.817,0,0,0-1.756-.64C548.466,475.871,548.882,476.169,549.144,476.472Z"
                fill="#dfdde2"
                fill-rule="evenodd" id="path3729" transform="translate(-544.378 -471.87)" />
            <path d="M591.734,509.19l-.021.018a20.629,20.629,0,0,1,1.669,1.431c.148.124.127.258.143.392.054-.063-.017-.278.1-.3s.524.194.549.16A13.93,13.93,0,0,1,591.734,509.19Z"
                fill="#c3bdc9"
                fill-rule="evenodd" id="path3731" transform="translate(-587.573 -505.627)" />
            <path d="M867.913,752.123a1.419,1.419,0,0,1-.143-.931,1.775,1.775,0,0,1,1.494,1.462c-.186-.719-.872-1.372-1.344-1.287.289.265.641.809.861,1.043a.939.939,0,0,0-.276.038.684.684,0,0,0-.35.046,1.839,1.839,0,0,1-.192-.294c.128.18.312.153.5.1-.194-.353-.387-.607-.581-.906C867.789,751.464,867.88,751.84,867.913,752.123Z"
                fill="#e0dee4"
                fill-rule="evenodd" id="path3733" transform="translate(-861.667 -745.936)" />
            <path d="M965.214,692.19c2.145,1.424,2.307,3.764.791,3.38C967.824,695.351,965.692,692.649,965.214,692.19Z"
                fill="#dfdde2"
                fill-rule="evenodd" id="path3735" transform="translate(-958.461 -687.346)" />
            <path d="M979.345,927.511c.176-.074.649-.066.67.663l-.156.116A.659.659,0,0,0,979.345,927.511Z"
                fill="#c3bdc9"
                fill-rule="evenodd" id="path3737" transform="translate(-972.493 -920.991)" />
            <path d="M1052.88,1028.077l.163-.119c.781.3.4,1.141-.146,1.007A.444.444,0,0,0,1052.88,1028.077Z"
                fill="#c3bdc9"
                fill-rule="evenodd" id="path3739" transform="translate(-1045.514 -1020.765)" />
            <path d="M1412.679,227.806c.106.185-.189.741.319.657a.575.575,0,0,0,.4.05.465.465,0,0,0,.348-.411c-.292-.411.035-.489.071-.515a.246.246,0,0,1,.031.461q.029.023.089-.008c0,.534.375.571.638.484.518.141.267-.457.511-.9-.278.489-.1.934-.5.877.1-.252-.171-.449-.035-.723-.211.181.14.515,0,.688-.143.125-.281.021-.285-.035-.058-.181.356-.4.108-.734a.385.385,0,0,1,.01.376c-.045.115-.221.219-.141.447a.334.334,0,0,1-.225-.421c.05-.167.134-.448-.182-.539a.285.285,0,0,0-.148.493c.1.106-.082.427-.307.426.1-.158-.019-.189-.171-.44-.011.133.3.313.123.419a.221.221,0,0,1-.277-.023c-.1-.116.143-.251.1-.473-.066.326-.16.306-.148.461-.118.034-.241.076-.279-.149C1412.729,227.963,1412.723,227.773,1412.679,227.806Z"
                fill="#dfa12f"
                fill-rule="evenodd" id="path3741" transform="translate(-1402.795 -225.965)" />
            <path d="M1446.688,430.41l.006.033c-.62.04-1.252-.079-1.861-.092v-.029C1445.448,430.337,1445.936,430.445,1446.688,430.41Z"
                fill="#dfa12f"
                fill-rule="evenodd" id="path3743" transform="translate(-1434.723 -427.311)" />
            <path d="M1573.137,458.07l0,.025a4.29,4.29,0,0,0,1.009.083v-.027A3.421,3.421,0,0,1,1573.137,458.07Z"
                fill="#dfa12f"
                fill-rule="evenodd" id="path3745" transform="translate(-1562.128 -454.865)" />
            <path d="M1440.931,379.458c-.1.031-.052.176,0,.175a1.639,1.639,0,0,0,.34,0,.114.114,0,0,0,.013-.19A1.018,1.018,0,0,0,1440.931,379.458Zm-.021-.019a1.28,1.28,0,0,1,.475.006.118.118,0,0,1,0,.213,3.417,3.417,0,0,1-.473-.006A.13.13,0,0,1,1440.91,379.439Z"
                fill="#e1a02f"
                fill-rule="evenodd" id="path3747" transform="translate(-1430.774 -376.764)" />
            <path d="M1541.993,380.456c.255.034.471.053.417-.146C1542.337,380.31,1541.845,380.2,1541.993,380.456Zm-.008.027a.139.139,0,0,1,.012-.211,2.093,2.093,0,0,1,.436.019c.136.056.124.177.011.229a2.09,2.09,0,0,1-.459-.037Z"
                fill="#e1a02f"
                fill-rule="evenodd" id="path3749" transform="translate(-1531.153 -377.606)" />
            <path d="M1641.367,386.45c.252.054.464.1.426-.1C1641.72,386.343,1641.241,386.183,1641.367,386.45Zm-.01.026a.139.139,0,0,1,.029-.21,1.317,1.317,0,0,1,.433.055c.131.067.109.187-.007.229A.883.883,0,0,1,1641.358,386.476Z"
                fill="#e1a02f"
                fill-rule="evenodd" id="path3751" transform="translate(-1629.838 -383.563)" />
            <path d="M934.392,980.482l-.4,1.183a1.71,1.71,0,0,0,.4-.035A1.168,1.168,0,0,0,934.392,980.482Z"
                fill="#c3bdc9"
                fill-rule="evenodd" id="path3753" transform="translate(-927.456 -973.621)" />
            <path d="M905.464,1150.955l-.725-1.121a2.7,2.7,0,0,0-.206.615,1.08,1.08,0,0,0,.931.506Z"
                fill="#fff"
                fill-rule="evenodd" id="path3755" transform="translate(-898.204 -1141.787)" />
            <path d="M991.685,1138.36c.254-.091.3-.244.307-.337l-.511.045A2.071,2.071,0,0,1,991.685,1138.36Z"
                fill="#c3bdc9"
                fill-rule="evenodd" id="path3757" transform="translate(-984.544 -1130.06)" />
            <path d="M827.895,1055.366a.7.7,0,0,0-.505-.032l.426.394A2.254,2.254,0,0,1,827.895,1055.366Z"
                fill="#c3bdc9"
                fill-rule="evenodd" id="path3759" transform="translate(-821.601 -1047.916)" />
            <path d="M761.97,1150.913l1.2-.616a4.242,4.242,0,0,1-.2.614C762.825,1150.985,762.232,1151.126,761.97,1150.913Z"
                fill="#c3bdc9"
                fill-rule="evenodd" id="path3761" transform="translate(-756.639 -1142.248)" />
        </g>
    </g>
</svg>
